<svg xmlns="http://www.w3.org/2000/svg" width="10.59" height="10.6" viewBox="0 0 10.59 10.6">
  <metadata><?xpacket begin="﻿" id="W5M0MpCehiHzreSzNTczkc9d"?>
<x:xmpmeta xmlns:x="adobe:ns:meta/" x:xmptk="Adobe XMP Core 5.6-c138 79.159824, 2016/09/14-01:09:01        ">
   <rdf:RDF xmlns:rdf="http://www.w3.org/1999/02/22-rdf-syntax-ns#">
      <rdf:Description rdf:about=""/>
   </rdf:RDF>
</x:xmpmeta>
                                                                                                    
                                                                                                    
                                                                                                    
                                                                                                    
                                                                                                    
                                                                                                    
                                                                                                    
                                                                                                    
                                                                                                    
                                                                                                    
                                                                                                    
                                                                                                    
                                                                                                    
                                                                                                    
                                                                                                    
                                                                                                    
                                                                                                    
                                                                                                    
                                                                                                    
                                                                                                    
                           
<?xpacket end="w"?></metadata>
<defs>
    <style>
      .cls-1 {
        fill: #fff;
        fill-rule: evenodd;
      }
    </style>
  </defs>
  <path id="Shape_1_copy" data-name="Shape 1 copy" class="cls-1" d="M1796.92,1719.95l-0.02.01,6.64-6.63,0.01,4.18a0.773,0.773,0,0,0,.22.54,0.764,0.764,0,0,0,.55.23h0.65a0.758,0.758,0,0,0,.54-0.23,0.725,0.725,0,0,0,.23-0.54l-0.01-7.16a0.773,0.773,0,0,0-.22-0.54,0.764,0.764,0,0,0-.55-0.23h-7.16a0.752,0.752,0,0,0-.76.77V1711a0.791,0.791,0,0,0,.22.54,0.773,0.773,0,0,0,.54.22l4.21-.01-6.65,6.66a0.785,0.785,0,0,0,0,1.1l0.46,0.46A0.785,0.785,0,0,0,1796.92,1719.95Z" transform="translate(-1795.16 -1709.59)"/>
</svg>
