<svg xmlns="http://www.w3.org/2000/svg" width="11" height="10.969" viewBox="0 0 11 10.969">
  <metadata><?xpacket begin="﻿" id="W5M0MpCehiHzreSzNTczkc9d"?>
<x:xmpmeta xmlns:x="adobe:ns:meta/" x:xmptk="Adobe XMP Core 5.6-c138 79.159824, 2016/09/14-01:09:01        ">
   <rdf:RDF xmlns:rdf="http://www.w3.org/1999/02/22-rdf-syntax-ns#">
      <rdf:Description rdf:about=""/>
   </rdf:RDF>
</x:xmpmeta>
                                                                                                    
                                                                                                    
                                                                                                    
                                                                                                    
                                                                                                    
                                                                                                    
                                                                                                    
                                                                                                    
                                                                                                    
                                                                                                    
                                                                                                    
                                                                                                    
                                                                                                    
                                                                                                    
                                                                                                    
                                                                                                    
                                                                                                    
                                                                                                    
                                                                                                    
                                                                                                    
                           
<?xpacket end="w"?></metadata>
<defs>
    <style>
      .cls-1 {
        fill: #1e1e1e;
        fill-rule: evenodd;
      }
    </style>
  </defs>
  <path class="cls-1" d="M935.244,663.83l-0.013-.02,6.894,6.9-4.341.007a0.806,0.806,0,0,0-.8.8v0.675a0.8,0.8,0,0,0,.8.8l7.433,0a0.8,0.8,0,0,0,.8-0.8l0-7.434a0.8,0.8,0,0,0-.8-0.8h-0.675a0.791,0.791,0,0,0-.563.234,0.762,0.762,0,0,0-.226.555l0,4.378-6.91-6.91a0.825,0.825,0,0,0-1.15.007l-0.478.477A0.81,0.81,0,0,0,935.244,663.83Z" transform="translate(-935 -662)"/>
</svg>
